<?xml version="1.0" standalone="no"?>
<!DOCTYPE svg PUBLIC "-//W3C//DTD SVG 20010904//EN"
 "http://www.w3.org/TR/2001/REC-SVG-20010904/DTD/svg10.dtd">
<svg version="1.0" xmlns="http://www.w3.org/2000/svg"
 width="512.000000pt" height="512.000000pt" viewBox="0 0 512.000000 512.000000"
 preserveAspectRatio="xMidYMid meet">

<g transform="translate(0.000000,512.000000) scale(0.100000,-0.100000)"
fill="#000000" stroke="none">
<path d="M1096 4663 c-258 -55 -472 -249 -553 -501 -35 -107 -42 -260 -18
-368 32 -146 102 -271 208 -375 l60 -59 -174 0 c-161 0 -178 -2 -224 -24 -87
-40 -135 -115 -135 -208 0 -131 105 -236 237 -238 37 0 45 -5 72 -42 96 -130
96 -315 1 -445 -28 -38 -34 -41 -90 -46 -70 -6 -137 -41 -173 -90 -74 -99 -60
-242 33 -319 l38 -32 -42 -29 c-265 -188 -391 -533 -311 -848 56 -219 221
-419 430 -519 170 -82 -59 -74 2323 -77 1412 -2 2136 0 2161 7 92 25 168 115
178 213 15 148 -102 277 -253 277 -36 0 -47 5 -74 37 -125 142 -125 384 0 526
27 32 38 37 74 37 66 0 135 28 181 75 98 98 98 252 0 350 -60 61 -111 75 -268
75 l-129 0 79 84 c127 133 188 275 200 461 14 218 -73 428 -240 580 -102 93
-251 166 -375 183 l-47 7 3 71 c7 143 -76 238 -219 251 -57 6 -59 7 -93 57
-50 72 -66 126 -66 215 1 84 25 160 73 223 25 32 33 36 88 41 75 7 141 44 183
105 38 54 48 149 21 217 -20 54 -88 117 -143 133 -29 9 -406 12 -1493 11
-1248 -1 -1464 -3 -1523 -16z m2999 -158 c25 -24 32 -65 19 -100 -18 -46 15
-45 -1280 -45 l-1218 0 -23 -22 c-33 -30 -31 -80 3 -107 27 -21 29 -21 1119
-21 l1092 0 -23 -48 c-61 -128 -60 -309 4 -440 l20 -42 -1321 2 -1322 3 -40
22 c-167 90 -196 315 -55 436 55 47 117 67 206 67 40 0 84 5 98 11 33 15 50
57 37 92 -16 42 -43 50 -160 45 -94 -3 -114 -7 -174 -35 -90 -43 -169 -119
-210 -202 -30 -62 -32 -72 -32 -176 0 -98 3 -116 27 -167 45 -97 140 -185 242
-226 37 -16 170 -17 1509 -22 l1469 -5 19 -24 c27 -33 25 -86 -6 -116 l-24
-25 -1439 0 c-990 0 -1457 3 -1498 11 -215 39 -408 223 -459 440 -19 82 -19
186 0 268 50 209 234 390 445 435 54 12 310 15 1508 15 l1443 1 24 -25z m283
-1327 c280 -102 441 -371 393 -654 -26 -150 -138 -316 -265 -393 -64 -38 -175
-81 -211 -81 -25 0 -25 1 -25 84 l0 84 34 6 c49 9 125 52 169 94 218 209 168
547 -102 680 l-75 37 -1915 5 c-1054 3 -1924 9 -1934 14 -43 21 -50 94 -12
132 l24 24 1923 -2 1923 -3 73 -27z m-97 -303 c166 -57 232 -262 129 -404 -27
-37 -110 -101 -132 -101 -4 0 -8 41 -8 90 0 83 -2 93 -25 115 l-24 25 -767 0
-768 0 -23 -22 c-33 -30 -31 -80 3 -107 25 -20 39 -21 290 -21 l264 0 0 -45 0
-45 -1246 0 c-1183 0 -1246 1 -1239 18 76 181 77 322 1 495 -8 16 79 17 1746
17 1548 0 1760 -2 1799 -15z m-161 -956 l0 -531 -176 91 c-96 50 -187 91 -200
91 -14 0 -104 -41 -200 -91 l-174 -91 0 531 0 531 375 0 375 0 0 -531z m-900
206 l0 -85 -1380 0 -1381 0 -24 25 c-42 41 -32 105 20 133 14 8 418 11 1393
12 l1372 0 0 -85z m0 -335 l0 -100 -1233 0 c-1075 0 -1240 -2 -1292 -15 -174
-46 -307 -188 -337 -363 -30 -179 56 -365 213 -459 111 -66 27 -63 1582 -63
l1408 0 24 25 c32 31 32 69 0 100 l-24 25 -1405 0 c-1383 0 -1406 0 -1459 20
-73 27 -130 79 -164 148 -37 74 -39 182 -6 254 26 57 88 118 151 149 l47 24
1248 3 1247 2 0 -154 0 -155 26 -20 c15 -12 36 -21 46 -21 11 0 117 50 236
112 l216 112 217 -112 c119 -62 226 -112 238 -112 12 0 33 11 46 25 24 23 25
28 25 175 l0 150 179 0 180 0 -28 -57 c-74 -151 -74 -335 -1 -485 l28 -58
-409 0 -410 0 -24 -25 c-14 -13 -25 -36 -25 -50 0 -14 11 -37 25 -50 l24 -25
547 0 546 0 34 -34 c37 -37 43 -70 20 -115 -8 -15 -26 -32 -41 -39 -20 -9
-514 -12 -2103 -12 -2315 0 -2147 -5 -2302 71 -169 83 -307 260 -345 444 -74
351 151 691 510 770 48 11 312 14 1303 14 l1242 1 0 -100z m1699 86 c28 -15
51 -53 51 -86 0 -33 -23 -71 -51 -86 -23 -11 -89 -14 -339 -14 l-310 0 0 100
0 100 310 0 c250 0 316 -3 339 -14z"/>
</g>
</svg>
