<?xml version="1.0" standalone="no"?>
<!DOCTYPE svg PUBLIC "-//W3C//DTD SVG 20010904//EN"
 "http://www.w3.org/TR/2001/REC-SVG-20010904/DTD/svg10.dtd">
<svg version="1.0" xmlns="http://www.w3.org/2000/svg"
 width="512.000000pt" height="512.000000pt" viewBox="0 0 512.000000 512.000000"
 preserveAspectRatio="xMidYMid meet">

<g transform="translate(0.000000,512.000000) scale(0.100000,-0.100000)"
fill="#000000" stroke="none">
<path d="M2697 4850 c-87 -22 -181 -86 -227 -154 l-24 -34 -60 33 c-82 45
-166 61 -246 47 -131 -23 -231 -94 -289 -201 l-32 -60 -52 27 c-47 25 -62 27
-162 27 -104 0 -114 -2 -176 -32 -80 -39 -150 -111 -187 -191 -25 -53 -27 -67
-30 -224 l-4 -167 -452 -3 -452 -3 -76 -37 c-91 -45 -147 -103 -191 -196 -29
-61 -32 -76 -32 -162 0 -86 3 -101 32 -162 44 -93 100 -151 191 -196 l76 -37
452 -3 452 -3 5 -267 c4 -228 7 -279 25 -348 65 -252 177 -457 351 -646 l61
-66 -2 -264 -3 -263 -44 -6 c-31 -4 -51 -14 -68 -33 l-23 -27 0 -429 c0 -461
1 -470 51 -496 42 -21 1956 -21 1998 0 50 26 51 35 51 496 l0 429 -23 27 c-17
19 -37 29 -68 33 l-44 6 -3 264 -2 263 58 63 c175 187 282 380 348 626 26 98
27 119 32 372 l4 267 264 0 264 0 328 164 c338 169 352 178 352 236 0 58 -14
67 -352 236 l-328 164 -329 0 -329 0 -4 213 -3 212 -32 67 c-58 122 -168 207
-299 228 -73 12 -130 5 -212 -27 -35 -14 -64 -23 -66 -21 -1 1 -11 23 -21 48
-29 65 -112 145 -189 181 -73 34 -187 47 -259 29z m181 -216 c39 -19 59 -38
80 -72 l27 -47 3 -302 3 -303 -133 0 c-112 0 -144 -4 -201 -24 l-68 -23 3 326
3 326 27 47 c32 53 108 98 168 98 20 0 60 -12 88 -26z m-633 -95 c57 -16 104
-55 126 -105 19 -41 19 -72 17 -667 l-3 -623 -28 -42 c-70 -107 -240 -114
-315 -12 -42 56 -43 78 -40 715 l3 610 23 37 c24 38 72 74 120 88 38 12 51 11
97 -1z m1243 -124 c78 -47 92 -95 92 -321 l0 -184 -196 0 -195 0 3 203 c3 203
3 204 30 245 57 85 175 110 266 57z m-1805 -89 c43 -17 93 -76 106 -123 14
-51 14 -715 0 -766 -44 -161 -285 -185 -358 -35 -20 43 -21 58 -21 422 0 350
1 379 19 414 34 67 91 101 169 102 29 0 67 -6 85 -14z m-903 -806 l0 -200
-201 0 c-229 0 -266 7 -319 60 -103 103 -62 280 75 328 17 6 121 11 238 11
l207 1 0 -200z m420 0 l0 -200 -110 0 -110 0 0 200 0 200 110 0 110 0 0 -200z
m2880 0 l0 -200 -80 0 -80 0 0 103 c0 108 -18 215 -45 266 l-16 31 111 0 110
0 0 -200z m455 133 l135 -68 0 -65 0 -65 -135 -68 c-122 -60 -141 -67 -195
-67 l-60 0 0 200 0 200 60 0 c54 0 73 -7 195 -67z m-940 38 c47 -22 89 -64
104 -104 7 -18 11 -182 11 -469 0 -403 -2 -448 -20 -539 -26 -129 -69 -244
-127 -344 -60 -105 -90 -143 -189 -245 -46 -47 -88 -98 -93 -113 -7 -17 -11
-140 -11 -318 l0 -289 -710 0 -710 0 0 185 c0 102 2 185 4 185 2 0 48 -22 103
-49 164 -81 201 -86 249 -34 30 33 32 90 4 126 -11 13 -50 37 -87 52 -141 56
-273 147 -389 266 -139 144 -233 309 -290 510 -25 88 -27 110 -31 353 l-5 258
44 -6 c135 -19 212 -18 273 3 33 12 64 22 68 24 4 1 17 -25 28 -57 26 -77 68
-137 130 -186 48 -38 142 -80 179 -80 44 0 48 -8 28 -50 -25 -50 -17 -91 24
-125 57 -48 112 -28 172 64 91 141 206 241 361 317 122 59 228 83 405 91 141
6 146 7 172 34 39 38 38 87 -1 131 l-29 33 -269 5 -270 5 -41 28 c-133 88
-104 302 47 347 14 5 206 9 426 9 369 1 403 -1 440 -18z m-185 -2931 l0 -300
-850 0 -850 0 0 300 0 300 850 0 850 0 0 -300z"/>
<path d="M1997 2399 c-9 -5 -24 -24 -33 -41 -43 -84 43 -174 129 -133 94 44
64 186 -40 185 -21 0 -46 -5 -56 -11z"/>
<path d="M1945 837 c-17 -14 -28 -36 -32 -63 -5 -36 -1 -46 25 -75 25 -28 37
-34 72 -34 35 0 47 6 71 33 16 18 29 44 29 58 0 33 -25 81 -49 94 -34 17 -88
12 -116 -13z"/>
</g>
</svg>
