<?xml version="1.0" standalone="no"?>
<!DOCTYPE svg PUBLIC "-//W3C//DTD SVG 20010904//EN"
 "http://www.w3.org/TR/2001/REC-SVG-20010904/DTD/svg10.dtd">
<svg version="1.0" xmlns="http://www.w3.org/2000/svg"
 width="512.000000pt" height="512.000000pt" viewBox="0 0 512.000000 512.000000"
 preserveAspectRatio="xMidYMid meet">

<g transform="translate(0.000000,512.000000) scale(0.100000,-0.100000)"
fill="#000000" stroke="none">
<path d="M792 4424 c-29 -14 -68 -44 -87 -67 -62 -72 -65 -95 -65 -534 l0
-393 -247 0 c-238 0 -250 -1 -288 -23 -21 -12 -53 -42 -70 -65 l-30 -44 -3
-951 c-1 -524 0 -962 3 -975 4 -14 19 -29 40 -38 31 -13 39 -13 64 0 16 9 31
23 35 31 3 9 6 437 6 950 0 835 2 935 16 949 14 14 93 16 719 16 626 0 705 -2
719 -16 14 -14 16 -138 16 -1214 0 -1076 -2 -1200 -16 -1214 -14 -14 -93 -16
-719 -16 -626 0 -705 2 -719 16 -13 12 -16 40 -16 143 0 114 -2 129 -20 149
-30 32 -82 30 -110 -5 -20 -26 -21 -37 -18 -174 3 -146 3 -148 33 -191 17 -24
51 -54 75 -68 l45 -25 730 0 730 0 45 25 c24 14 58 45 75 68 l30 44 3 439 3
439 154 0 155 0 0 -145 0 -145 -108 0 c-93 0 -111 -3 -125 -18 -24 -27 -22
-85 4 -108 20 -18 47 -19 709 -19 662 0 689 1 709 19 27 25 29 86 3 109 -15
14 -40 17 -125 17 l-107 0 0 145 0 145 415 0 415 0 0 -351 c0 -339 1 -353 21
-389 12 -21 38 -47 59 -59 37 -21 47 -21 545 -21 503 0 508 0 546 22 71 40 79
71 79 322 0 120 -4 225 -10 235 -5 10 -23 24 -40 31 -30 12 -30 13 -30 86 0
70 2 75 24 84 58 22 57 8 54 603 -3 533 -3 546 -24 573 -51 68 -52 69 -310 72
l-234 3 0 663 c0 735 1 727 -65 803 -19 23 -58 53 -87 67 -47 23 -63 26 -164
26 -110 0 -113 -1 -133 -26 -26 -34 -27 -68 -1 -94 24 -24 44 -28 147 -32 70
-3 85 -6 107 -27 14 -14 30 -41 36 -60 6 -22 10 -284 10 -678 l0 -643 -75 0
-75 0 0 614 0 615 -26 20 -27 21 -1609 -2 -1610 -3 -19 -24 c-18 -22 -19 -43
-19 -357 l0 -334 -75 0 -76 0 3 396 3 396 37 34 38 34 1496 0 1496 0 30 30
c24 25 29 36 23 58 -3 15 -14 35 -22 45 -15 16 -101 17 -1533 17 l-1516 0 -52
-26z m3308 -978 l0 -554 -65 -4 c-69 -4 -101 -21 -139 -72 -20 -26 -21 -42
-24 -352 l-3 -324 -1049 0 -1050 0 0 565 c0 488 -2 571 -15 603 -20 47 -50 78
-100 105 -38 21 -56 22 -302 25 l-263 3 0 280 0 279 1505 0 1505 0 0 -554z
m-230 -1536 l0 -70 -1050 0 -1050 0 0 70 0 70 1050 0 1050 0 0 -70z m-1210
-370 l0 -140 -210 0 -210 0 0 140 0 140 210 0 210 0 0 -140z"/>
<path d="M2278 3843 c-15 -2 -41 -18 -57 -34 -40 -39 -43 -77 -39 -384 3 -218
5 -253 21 -276 35 -52 47 -54 361 -54 319 0 324 1 357 62 21 38 21 588 0 626
-32 60 -40 62 -341 63 -151 1 -287 0 -302 -3z m502 -373 l0 -220 -220 0 -220
0 0 220 0 220 220 0 220 0 0 -220z"/>
<path d="M1917 2908 c-38 -30 -38 -95 1 -124 25 -19 1259 -20 1284 0 41 31 37
113 -7 130 -9 3 -297 6 -639 6 -482 0 -626 -3 -639 -12z"/>
<path d="M1917 2588 c-38 -30 -38 -95 1 -124 25 -19 1259 -20 1284 0 41 31 37
113 -7 130 -9 3 -297 6 -639 6 -482 0 -626 -3 -639 -12z"/>
<path d="M796 2767 c-10 -7 -51 -96 -91 -198 l-73 -184 -101 -3 c-94 -3 -101
-4 -121 -29 -23 -29 -24 -42 -9 -76 17 -38 51 -47 175 -47 147 0 163 8 194 90
13 34 26 58 30 53 4 -4 19 -114 34 -243 15 -129 34 -250 41 -267 23 -52 101
-58 127 -10 6 12 44 105 83 207 l71 185 98 5 c82 4 100 8 112 24 23 33 18 82
-12 105 -24 19 -40 21 -149 21 -148 0 -153 -3 -195 -110 -16 -41 -30 -73 -30
-70 -1 3 -16 122 -34 264 -30 236 -35 261 -56 278 -26 21 -69 23 -94 5z"/>
<path d="M585 1105 c-32 -31 -33 -74 -2 -103 23 -22 30 -22 303 -22 280 0 281
0 302 23 29 31 28 72 -3 102 l-24 25 -276 0 -276 0 -24 -25z"/>
</g>
</svg>
