<?xml version="1.0" standalone="no"?>
<!DOCTYPE svg PUBLIC "-//W3C//DTD SVG 20010904//EN"
 "http://www.w3.org/TR/2001/REC-SVG-20010904/DTD/svg10.dtd">
<svg version="1.0" xmlns="http://www.w3.org/2000/svg"
 width="512.000000pt" height="512.000000pt" viewBox="0 0 512.000000 512.000000"
 preserveAspectRatio="xMidYMid meet">

<g transform="translate(0.000000,512.000000) scale(0.100000,-0.100000)"
fill="#000000" stroke="none">
<path d="M2523 5114 c-13 -6 -2441 -1900 -2485 -1939 -32 -29 -43 -63 -33
-102 7 -31 362 -395 407 -419 35 -18 62 -18 98 1 l30 16 0 -1236 0 -1235 -230
0 c-180 0 -237 -3 -259 -14 -66 -35 -66 -137 0 -172 42 -21 4976 -21 5018 0
66 35 66 137 0 172 -22 11 -79 14 -259 14 l-230 0 0 475 c0 509 -1 514 -51
541 -35 18 -63 18 -98 0 -50 -27 -51 -32 -51 -541 l0 -475 -1580 0 -1580 0 0
480 c0 514 0 519 -51 546 -35 18 -63 18 -98 0 -51 -27 -51 -32 -51 -546 l0
-480 -140 0 -140 0 2 1317 3 1316 908 709 907 709 908 -709 907 -708 5 -494
c3 -272 9 -503 14 -513 10 -21 57 -47 86 -47 33 0 75 26 88 55 9 19 12 138 12
431 l0 405 30 -16 c34 -18 63 -19 93 -4 31 16 385 369 403 401 21 41 17 74
-15 110 -16 18 -160 134 -319 258 l-291 225 0 512 c-1 375 -4 519 -13 538 -24
53 -41 55 -378 55 -328 0 -355 -3 -376 -47 -5 -10 -11 -114 -14 -230 l-5 -213
-125 98 c-490 385 -948 741 -967 750 -22 12 -58 14 -80 6z m1153 -1092 c611
-477 1128 -881 1150 -899 l39 -32 -105 -105 c-57 -58 -108 -106 -112 -106 -3
0 -465 358 -1024 795 -564 440 -1031 797 -1046 800 -16 4 -40 1 -55 -7 -16 -8
-482 -368 -1036 -801 -554 -433 -1011 -787 -1015 -787 -4 0 -54 47 -112 105
-67 67 -101 108 -95 114 19 18 2290 1791 2295 1791 3 0 505 -391 1116 -868z
m604 157 c0 -293 -3 -369 -12 -363 -7 5 -93 70 -190 147 l-178 138 0 225 0
224 190 0 190 0 0 -371z"/>
<path d="M1551 2926 c-52 -29 -50 11 -51 -1044 0 -1068 -2 -1024 55 -1050 19
-9 267 -12 1006 -12 1065 0 1021 -2 1047 55 17 38 17 1972 0 2010 -26 57 18
55 -1050 55 -797 -1 -988 -3 -1007 -14z m909 -566 l0 -380 -380 0 -380 0 0
380 0 380 380 0 380 0 0 -380z m960 0 l0 -380 -380 0 -380 0 0 380 0 380 380
0 380 0 0 -380z m-960 -960 l0 -380 -380 0 -380 0 0 380 0 380 380 0 380 0 0
-380z m960 0 l0 -380 -380 0 -380 0 0 380 0 380 380 0 380 0 0 -380z"/>
<path d="M1055 1607 c-17 -14 -28 -36 -32 -63 -5 -36 -1 -46 25 -75 25 -28 37
-34 72 -34 35 0 47 6 72 34 26 29 30 39 25 75 -7 54 -44 86 -97 86 -26 0 -48
-8 -65 -23z"/>
<path d="M4431 1566 c-87 -48 -50 -186 49 -186 51 0 100 49 100 99 0 75 -83
124 -149 87z"/>
</g>
</svg>
