<?xml version="1.0" standalone="no"?>
<!DOCTYPE svg PUBLIC "-//W3C//DTD SVG 20010904//EN"
 "http://www.w3.org/TR/2001/REC-SVG-20010904/DTD/svg10.dtd">
<svg version="1.0" xmlns="http://www.w3.org/2000/svg"
 width="512.000000pt" height="512.000000pt" viewBox="0 0 512.000000 512.000000"
 preserveAspectRatio="xMidYMid meet">

<g transform="translate(0.000000,512.000000) scale(0.100000,-0.100000)"
fill="#000000" stroke="none">
<path d="M305 4022 c-113 -39 -197 -125 -234 -240 -19 -55 -21 -87 -21 -271 0
-189 2 -209 18 -224 24 -22 65 -21 85 1 15 16 17 47 17 219 0 221 8 261 60
325 17 20 53 48 82 62 l52 26 2196 0 2196 0 52 -26 c61 -30 105 -80 127 -143
23 -67 23 -1245 0 -1312 -22 -63 -70 -118 -129 -145 l-51 -24 -475 0 -475 0
-154 126 c-85 69 -167 132 -182 139 -162 84 -357 -25 -376 -209 l-6 -56 -1361
0 -1361 0 -51 24 c-28 13 -65 41 -82 62 -55 66 -62 105 -62 326 0 185 -1 199
-20 218 -11 11 -29 20 -40 20 -11 0 -29 -9 -40 -20 -19 -19 -20 -33 -20 -223
0 -156 4 -216 16 -258 33 -114 119 -207 229 -248 55 -21 64 -21 1440 -21
l1385 0 5 -22 c3 -13 46 -225 95 -473 100 -501 102 -505 190 -553 37 -19 56
-23 107 -20 96 6 133 37 205 173 65 123 112 178 178 208 37 18 72 22 202 27
155 5 156 5 199 36 98 71 117 206 42 295 -14 17 -107 96 -206 177 l-181 147
420 5 419 5 55 26 c103 48 173 131 205 240 14 50 15 131 13 695 -3 602 -4 642
-22 684 -29 68 -89 143 -142 179 -100 65 72 61 -2348 61 -2064 -1 -2204 -2
-2251 -18z m3097 -1590 c31 -13 831 -664 853 -694 22 -32 18 -71 -10 -102 -23
-25 -27 -26 -147 -26 -252 0 -358 -61 -468 -271 -63 -121 -79 -139 -124 -139
-74 0 -69 -13 -182 546 -57 280 -103 532 -104 561 0 42 5 58 27 83 14 18 36
36 47 40 25 10 84 11 108 2z"/>
<path d="M516 3628 c-14 -20 -16 -84 -16 -503 0 -536 -1 -528 70 -570 30 -17
56 -20 193 -23 87 -2 169 -1 182 2 32 8 55 33 55 59 -1 50 -8 52 -197 57
l-178 5 -3 479 c-2 429 -4 482 -19 498 -23 25 -68 23 -87 -4z"/>
<path d="M1348 3631 c-313 -103 -456 -508 -291 -823 97 -186 296 -293 493
-267 76 10 185 61 247 114 59 51 127 157 159 250 34 101 39 254 10 350 -48
161 -150 288 -284 352 -70 33 -85 37 -177 40 -78 2 -113 -1 -157 -16z m282
-131 c69 -35 108 -68 150 -128 113 -158 114 -393 2 -553 -104 -148 -283 -203
-435 -132 -104 49 -195 161 -227 281 -14 56 -14 186 1 248 30 123 135 251 241
293 73 29 203 25 268 -9z"/>
<path d="M2405 3633 c-79 -29 -138 -68 -194 -129 -99 -108 -151 -250 -151
-410 0 -176 51 -306 165 -420 79 -80 148 -118 243 -133 131 -21 277 33 375
139 68 73 130 192 125 241 -5 50 -31 59 -180 59 -160 0 -197 -12 -198 -67 0
-43 24 -53 131 -53 54 0 99 -4 99 -9 0 -16 -77 -108 -113 -135 -119 -91 -287
-75 -398 37 -87 89 -129 200 -129 342 0 146 47 263 141 350 100 92 222 112
337 55 55 -28 80 -51 149 -133 25 -29 59 -35 87 -14 61 45 -48 192 -194 261
-83 39 -214 47 -295 19z"/>
<path d="M3547 3632 c-15 -17 -17 -69 -17 -538 0 -285 4 -524 8 -530 16 -24
51 -35 75 -23 12 7 25 17 29 23 4 6 8 245 8 532 0 492 -1 522 -18 537 -24 22
-65 21 -85 -1z"/>
<path d="M3892 3627 c-22 -23 -22 -23 -22 -538 0 -413 3 -519 13 -533 19 -26
67 -24 89 4 17 21 18 52 18 443 l0 421 245 -424 c135 -233 252 -432 262 -442
25 -28 77 -24 102 8 21 26 21 36 21 533 0 557 1 551 -59 551 -61 0 -61 4 -63
-448 l-3 -412 -235 407 c-129 223 -243 417 -253 430 -25 32 -85 32 -115 0z"/>
<path d="M70 3180 c-16 -16 -20 -33 -20 -83 0 -75 18 -107 60 -107 42 0 60 32
60 107 0 68 -20 103 -60 103 -11 0 -29 -9 -40 -20z"/>
</g>
</svg>
