<?xml version="1.0" standalone="no"?>
<!DOCTYPE svg PUBLIC "-//W3C//DTD SVG 20010904//EN"
 "http://www.w3.org/TR/2001/REC-SVG-20010904/DTD/svg10.dtd">
<svg version="1.0" xmlns="http://www.w3.org/2000/svg"
 width="512.000000pt" height="512.000000pt" viewBox="0 0 512.000000 512.000000"
 preserveAspectRatio="xMidYMid meet">

<g transform="translate(0.000000,512.000000) scale(0.100000,-0.100000)"
fill="#000000" stroke="none">
<path d="M1205 4891 l-860 -226 0 -2105 0 -2105 860 -226 860 -226 6 321 c3
176 7 376 8 444 l1 122 95 0 95 0 0 -35 0 -35 260 0 260 0 0 479 0 478 -52 7
c-29 3 -63 6 -75 6 l-23 0 0 -410 0 -410 -170 0 -170 0 0 503 0 504 317 6
c174 4 430 7 569 7 l254 0 2 -265 3 -265 660 501 c363 276 661 504 663 508 2
7 -1298 1001 -1319 1009 -5 2 -9 -114 -9 -257 l0 -261 -570 0 -570 0 0 595 0
595 170 0 170 0 0 -495 0 -495 75 0 75 0 0 570 0 570 -260 0 -260 0 0 -35 0
-35 -95 0 -95 0 -1 123 c-1 67 -5 267 -8 443 l-6 321 -860 -226z m715 -2331
c0 -1298 -2 -2360 -5 -2360 -3 0 -305 79 -672 176 -368 98 -687 182 -710 187
l-43 10 0 1986 0 1986 448 118 c246 65 562 149 702 187 140 37 261 68 268 69
9 1 12 -477 12 -2359z m920 -85 l0 -75 -80 0 -80 0 0 75 0 75 80 0 80 0 0 -75z
m250 0 l0 -75 -80 0 -80 0 0 75 0 75 80 0 80 0 0 -75z m-862 -412 c-26 -2 -71
-2 -100 0 -29 2 -8 3 47 3 55 0 79 -1 53 -3z"/>
<path d="M1420 2817 c-129 -36 -208 -146 -198 -276 11 -141 121 -244 263 -244
102 0 188 52 238 147 31 58 31 174 0 232 -61 114 -187 173 -303 141z m142
-176 c29 -26 33 -35 33 -81 0 -46 -4 -55 -33 -81 -25 -23 -42 -29 -77 -29 -35
0 -52 6 -77 29 -29 26 -33 35 -33 81 0 46 4 55 33 81 25 23 42 29 77 29 35 0
52 -6 77 -29z"/>
<path d="M2277 4623 c-4 -3 -7 -37 -7 -75 l0 -68 348 -2 347 -3 3 -657 2 -658
75 0 75 0 -2 733 -3 732 -416 3 c-228 1 -418 -1 -422 -5z"/>
<path d="M2968 1213 l-3 -568 -348 -3 -348 -2 3 -73 3 -72 420 0 420 0 3 643
2 642 -75 0 -75 0 -2 -567z"/>
</g>
</svg>
