<?xml version="1.0" standalone="no"?>
<!DOCTYPE svg PUBLIC "-//W3C//DTD SVG 20010904//EN"
 "http://www.w3.org/TR/2001/REC-SVG-20010904/DTD/svg10.dtd">
<svg version="1.0" xmlns="http://www.w3.org/2000/svg"
 width="512.000000pt" height="512.000000pt" viewBox="0 0 512.000000 512.000000"
 preserveAspectRatio="xMidYMid meet">

<g transform="translate(0.000000,512.000000) scale(0.100000,-0.100000)"
fill="#000000" stroke="none">
<path d="M640 3394 l0 -765 23 18 c12 10 66 54 120 98 l97 79 0 627 0 627
-120 40 -120 41 0 -765z"/>
<path d="M4358 4118 l-118 -40 0 -628 0 -629 118 -97 117 -96 3 380 c1 209 1
553 0 765 l-3 384 -117 -39z"/>
<path d="M3656 3829 c-143 -13 -332 -54 -471 -100 -126 -42 -335 -136 -335
-151 0 -12 60 -117 71 -124 5 -3 28 6 51 20 62 36 209 95 318 128 165 50 297
70 506 75 l192 6 9 71 c6 39 10 72 9 73 -7 8 -269 10 -350 2z"/>
<path d="M1273 3762 c-82 -3 -79 2 -67 -99 l7 -53 146 0 c297 -1 578 -64 825
-186 48 -24 92 -42 96 -39 5 3 23 31 40 62 38 68 41 64 -90 125 -293 138 -625
204 -957 190z"/>
<path d="M3760 3360 l0 -80 80 0 80 0 0 80 0 80 -80 0 -80 0 0 -80z"/>
<path d="M1273 3362 c-82 -3 -79 2 -67 -99 l7 -53 146 0 c297 -1 578 -64 825
-186 48 -24 92 -42 96 -39 5 3 23 31 40 62 38 68 41 64 -90 125 -293 138 -625
204 -957 190z"/>
<path d="M758 2114 l-118 -109 0 -121 0 -122 38 -7 c91 -17 175 -76 230 -163
31 -48 72 -166 72 -206 0 -21 2 -21 182 -18 248 5 441 -19 665 -83 213 -62
514 -193 553 -242 16 -20 20 -40 20 -94 l0 -69 240 0 240 0 0 77 c0 75 0 76
39 113 86 82 287 192 447 244 191 63 469 91 663 67 51 -7 96 -10 98 -7 2 2 11
32 19 66 40 170 154 293 297 316 l37 7 0 117 0 118 -117 111 -118 110 -3 -271
-2 -270 -33 6 c-17 3 -117 9 -222 12 -149 5 -219 3 -325 -11 -324 -41 -640
-157 -913 -335 l-108 -70 -92 49 c-212 114 -506 224 -737 275 -206 45 -528 76
-796 76 l-134 0 -2 272 -3 271 -117 -109z"/>
<path d="M3671 2159 c-230 -18 -490 -87 -691 -182 -142 -67 -139 -62 -100
-130 17 -31 36 -59 41 -62 4 -3 48 14 96 39 239 120 536 186 832 186 l138 0
10 73 c6 39 10 73 9 73 -6 8 -247 10 -335 3z"/>
</g>
</svg>
