<?xml version="1.0" standalone="no"?>
<!DOCTYPE svg PUBLIC "-//W3C//DTD SVG 20010904//EN"
 "http://www.w3.org/TR/2001/REC-SVG-20010904/DTD/svg10.dtd">
<svg version="1.0" xmlns="http://www.w3.org/2000/svg"
 width="512.000000pt" height="512.000000pt" viewBox="0 0 512.000000 512.000000"
 preserveAspectRatio="xMidYMid meet">

<g transform="translate(0.000000,512.000000) scale(0.100000,-0.100000)"
fill="#000000" stroke="none">
<path d="M724 4951 c-47 -12 -133 -62 -160 -94 -14 -17 -37 -53 -52 -81 l-27
-51 0 -1805 0 -1805 27 -51 c40 -76 70 -107 140 -145 l63 -34 1003 -3 1002 -2
0 80 0 80 -988 2 -989 3 -35 27 c-74 56 -68 -74 -68 1592 l0 1496 1760 0 1760
0 0 -920 0 -920 80 0 80 0 -2 1203 -3 1202 -27 51 c-40 76 -70 107 -140 145
l-63 34 -1665 2 c-916 0 -1679 -2 -1696 -6z"/>
<path d="M4480 3760 l0 -800 80 0 80 0 0 800 0 800 -80 0 -80 0 0 -800z"/>
<path d="M905 3895 l-25 -24 0 -671 0 -671 25 -24 24 -25 671 0 671 0 24 25
25 24 0 671 0 671 -25 24 -24 25 -671 0 -671 0 -24 -25z m765 -477 c48 -25 90
-89 90 -138 0 -14 -10 -46 -22 -70 -25 -48 -89 -90 -138 -90 -49 0 -113 42
-137 90 -13 24 -23 56 -23 70 0 14 10 46 23 70 24 48 88 90 137 90 14 0 46
-10 70 -22z m36 -486 c83 -43 125 -113 132 -219 l5 -73 -243 0 -243 0 5 73 c8
124 66 202 178 238 38 13 123 3 166 -19z"/>
<path d="M2640 3680 l0 -80 80 0 80 0 0 80 0 80 -80 0 -80 0 0 -80z"/>
<path d="M2960 3680 l0 -80 480 0 480 0 0 80 0 80 -480 0 -480 0 0 -80z"/>
<path d="M2640 3360 l0 -80 640 0 640 0 0 80 0 80 -640 0 -640 0 0 -80z"/>
<path d="M2640 3040 l0 -80 640 0 640 0 0 80 0 80 -640 0 -640 0 0 -80z"/>
<path d="M2640 2720 l0 -80 640 0 640 0 0 80 0 80 -640 0 -640 0 0 -80z"/>
<path d="M4480 2720 l0 -80 80 0 80 0 0 80 0 80 -80 0 -80 0 0 -80z"/>
<path d="M960 2240 l0 -80 80 0 80 0 0 80 0 80 -80 0 -80 0 0 -80z"/>
<path d="M1280 2240 l0 -80 480 0 480 0 0 80 0 80 -480 0 -480 0 0 -80z"/>
<path d="M3430 2115 c-322 -51 -601 -98 -620 -104 -48 -14 -116 -74 -141 -123
-25 -50 -35 -135 -21 -177 l11 -31 -102 0 -102 0 -120 -80 -120 -80 -67 0 -68
0 0 -80 0 -80 68 0 67 0 120 -80 120 -80 195 0 195 0 97 -98 c87 -88 97 -102
108 -152 17 -76 63 -159 118 -215 55 -55 100 -82 200 -120 l72 -28 0 -214 0
-213 80 0 80 0 0 253 c0 206 -3 256 -15 274 -8 12 -61 39 -122 64 -59 23 -124
53 -144 66 -64 42 -105 113 -115 200 l-7 58 -156 158 c-148 150 -156 159 -156
197 0 52 29 81 86 87 41 5 66 -6 354 -150 l310 -155 115 -116 115 -116 57 57
58 57 -52 53 -52 53 222 0 222 0 0 -520 0 -520 80 0 80 0 0 520 0 520 138 0
c173 0 214 12 275 80 90 100 90 220 0 320 -62 69 -102 80 -284 80 l-148 0 -20
68 c-11 37 -32 110 -47 162 -14 52 -33 108 -41 124 -25 48 -95 117 -146 143
-91 45 -130 42 -777 -62z m706 -86 c24 -11 52 -35 62 -52 16 -25 92 -268 92
-292 0 -3 -93 -5 -207 -5 l-207 0 52 53 52 53 -58 57 -57 57 -110 -110 -110
-111 -397 3 c-386 3 -398 4 -418 24 -11 11 -23 36 -26 56 -5 29 -1 40 22 66
l29 32 590 94 c325 51 603 94 619 95 16 0 49 -8 72 -20z m635 -528 c18 -14 24
-29 24 -60 0 -57 -21 -74 -95 -79 l-60 -4 0 81 0 81 54 0 c38 0 61 -6 77 -19z"/>
<path d="M973 1730 c-18 -10 -39 -32 -47 -48 -35 -69 -116 -286 -109 -293 9
-8 135 -60 138 -56 1 1 22 53 47 116 l45 114 34 -64 c41 -76 84 -109 144 -109
34 0 58 10 119 50 42 28 80 50 84 50 4 0 30 -23 57 -51 73 -75 88 -79 275 -79
l160 0 0 80 0 80 -143 0 -143 0 -54 56 c-30 30 -68 62 -84 71 -48 25 -112 13
-182 -34 -32 -22 -64 -43 -71 -47 -8 -4 -24 16 -47 62 -46 91 -83 122 -144
122 -29 0 -59 -8 -79 -20z"/>
</g>
</svg>
