<?xml version="1.0" standalone="no"?>
<!DOCTYPE svg PUBLIC "-//W3C//DTD SVG 20010904//EN"
 "http://www.w3.org/TR/2001/REC-SVG-20010904/DTD/svg10.dtd">
<svg version="1.0" xmlns="http://www.w3.org/2000/svg"
 width="512.000000pt" height="512.000000pt" viewBox="0 0 512.000000 512.000000"
 preserveAspectRatio="xMidYMid meet">

<g transform="translate(0.000000,512.000000) scale(0.100000,-0.100000)"
fill="#000000" stroke="none">
<path d="M2176 4423 c-221 -47 -397 -185 -500 -391 -88 -175 -100 -520 -26
-741 23 -68 30 -107 30 -167 1 -114 17 -267 37 -338 39 -145 130 -301 232
-401 l51 -49 0 -131 0 -131 -75 -82 c-41 -45 -75 -89 -75 -97 0 -20 -10 -25
-259 -115 -122 -44 -240 -89 -263 -101 -40 -20 -43 -20 -77 -4 l-35 17 69 36
c82 43 210 162 221 206 4 19 0 52 -14 95 -31 99 -41 175 -52 410 -11 222 -23
299 -64 399 -73 180 -242 330 -427 378 -77 20 -213 22 -289 5 -190 -45 -362
-192 -441 -380 -42 -100 -56 -190 -68 -432 -11 -208 -29 -338 -57 -404 -9 -23
-13 -49 -9 -67 10 -46 127 -158 214 -205 l73 -41 -119 -61 c-134 -68 -184
-111 -222 -191 l-26 -55 -3 -327 -3 -328 25 -25 c32 -32 70 -32 101 0 l25 24
0 305 c0 192 4 315 11 333 18 49 51 73 192 144 l138 70 62 -57 c74 -67 114
-89 187 -102 111 -20 198 10 300 104 l61 57 40 -18 c29 -14 38 -23 33 -34 -52
-122 -48 -94 -52 -445 -4 -351 -1 -374 44 -395 35 -15 48 -14 77 9 l26 21 3
337 3 337 29 53 c16 28 45 64 63 78 19 15 143 66 276 114 133 49 249 91 259
95 13 5 40 -29 127 -158 61 -90 123 -173 138 -182 38 -25 112 -31 149 -12 16
9 58 45 94 81 35 36 68 66 72 66 4 0 8 -182 8 -404 l0 -405 26 -20 c15 -12 33
-21 40 -21 29 0 64 25 74 53 6 19 10 172 10 415 l0 385 78 -75 c59 -57 87 -78
115 -83 45 -9 95 0 125 21 13 9 72 90 133 181 87 130 114 163 127 158 9 -4
127 -47 262 -96 266 -97 299 -116 340 -195 25 -48 25 -50 30 -387 l5 -339 24
-19 c32 -26 67 -24 97 6 l25 25 -3 343 c-3 326 -4 345 -26 397 -12 30 -35 73
-52 96 l-30 42 44 15 43 15 97 -97 96 -96 0 -358 0 -358 25 -24 c27 -28 42
-30 78 -14 45 20 47 40 47 407 l0 347 94 94 95 94 168 -47 c205 -59 241 -76
271 -136 22 -43 22 -52 22 -383 l0 -338 25 -24 c31 -32 69 -32 100 0 l25 24 0
344 c0 381 -4 411 -63 489 -51 67 -110 100 -253 142 -71 20 -154 45 -184 54
l-55 17 -3 60 -3 60 73 75 c40 41 86 98 101 127 42 78 67 191 67 301 0 86 3
102 37 186 l38 91 3 244 c4 277 1 295 -57 312 -25 7 -163 9 -431 7 -371 -4
-398 -6 -452 -26 -214 -79 -337 -259 -326 -478 4 -67 10 -94 41 -158 35 -73
37 -84 37 -175 0 -180 53 -313 172 -435 67 -67 68 -70 68 -121 0 -34 -5 -57
-15 -65 -8 -7 -56 -24 -108 -39 l-93 -28 -99 37 c-55 20 -153 56 -217 79 -91
33 -119 48 -124 64 -4 12 -40 59 -80 103 l-74 82 0 122 0 123 74 77 c168 176
234 352 243 645 3 125 9 171 24 210 50 133 52 152 56 644 5 494 4 508 -43 530
-18 8 -199 11 -627 10 -493 0 -615 -3 -671 -16z m1194 -510 c0 -406 -6 -476
-46 -587 -23 -62 -27 -93 -34 -251 -10 -248 -38 -352 -130 -482 -140 -201
-356 -314 -596 -315 -206 0 -377 73 -517 222 -157 165 -216 342 -217 645 0 75
-5 110 -19 141 -41 91 -54 172 -55 344 -1 108 4 184 13 220 50 206 208 366
413 420 68 17 115 19 631 19 l557 1 0 -377z m-2423 -854 c115 -39 217 -131
273 -244 39 -80 56 -150 65 -270 l7 -100 -61 67 c-131 142 -343 233 -555 239
l-69 2 -88 -90 c-74 -75 -89 -95 -89 -122 0 -41 31 -71 73 -71 27 0 44 11 97
65 73 74 82 76 205 50 147 -31 305 -134 364 -237 25 -44 27 -54 19 -91 -32
-145 -179 -275 -334 -296 -227 -32 -422 119 -457 352 -11 75 -35 117 -68 117
-10 0 -20 3 -22 8 -9 15 13 238 29 286 90 277 355 422 611 335z m3781 -166
l-4 -198 -37 -82 c-34 -75 -37 -88 -37 -176 0 -52 -5 -119 -10 -148 -32 -173
-168 -303 -340 -328 -151 -21 -289 40 -380 167 -58 80 -80 161 -80 289 0 100
-2 109 -37 187 -48 106 -55 184 -23 270 40 105 139 187 249 206 25 4 194 8
375 9 l328 1 -4 -197z m-2507 -698 c212 -97 476 -90 732 20 16 7 18 2 15 -61
l-3 -69 -202 -138 -203 -138 -202 139 -203 139 -3 66 c-2 37 1 67 6 67 5 0 34
-11 63 -25z m-1803 -237 c60 -58 63 -63 60 -103 l-3 -43 -72 35 c-39 20 -92
54 -117 77 l-45 41 21 86 22 87 35 -60 c19 -32 64 -86 99 -120z m913 91 l20
-84 -46 -43 c-26 -23 -79 -58 -119 -77 l-71 -34 -3 40 c-3 39 0 44 65 107 40
39 81 91 98 124 16 31 31 55 33 54 1 -2 12 -41 23 -87z m983 -254 l128 -87
-93 -94 c-51 -51 -95 -91 -99 -89 -3 2 -57 81 -120 175 l-113 171 38 39 38 39
46 -33 c25 -18 104 -72 175 -121z m786 72 c0 -6 -210 -327 -227 -347 -2 -2
-47 39 -100 92 l-95 95 177 122 178 121 33 -38 c18 -20 33 -40 34 -45z m-2367
-57 c60 -7 176 1 215 15 8 3 12 -8 12 -38 0 -23 4 -58 10 -77 9 -31 7 -37 -18
-63 -96 -102 -180 -108 -285 -21 -51 41 -55 48 -46 70 5 14 9 50 9 81 0 48 2
54 17 49 10 -4 48 -11 86 -16z m3442 0 c54 -9 177 0 218 16 14 5 17 0 17 -33
0 -35 -7 -46 -85 -123 l-85 -85 -84 85 c-80 82 -83 87 -79 123 4 31 9 37 23
32 10 -3 44 -10 75 -15z"/>
<path d="M2305 3754 c-295 -28 -311 -33 -352 -95 -21 -32 -26 -54 -31 -128 -8
-144 14 -201 76 -201 57 0 67 18 72 136 l5 108 29 7 c72 20 346 31 473 20 220
-20 346 -60 462 -147 33 -25 70 -44 84 -44 39 0 70 31 70 70 0 28 -9 42 -49
79 -94 86 -246 150 -421 176 -98 15 -346 26 -418 19z"/>
<path d="M3971 2824 c-49 -21 -55 -100 -10 -125 11 -6 75 -15 142 -19 132 -10
246 -29 316 -54 64 -23 96 -21 120 10 44 56 12 103 -96 139 -129 43 -415 73
-472 49z"/>
<path d="M4671 1284 c-20 -25 -21 -39 -21 -291 l0 -264 25 -24 c13 -14 36 -25
50 -25 14 0 37 11 50 25 l25 24 0 266 0 266 -25 24 c-33 34 -77 33 -104 -1z"/>
<path d="M341 1184 c-20 -25 -21 -39 -21 -241 0 -214 0 -214 25 -238 31 -32
69 -32 100 0 l25 24 0 219 c0 215 0 219 -23 240 -33 31 -80 29 -106 -4z"/>
<path d="M1637 1138 c-30 -23 -37 -68 -37 -222 0 -167 8 -207 46 -225 35 -16
47 -14 78 10 l26 20 0 193 c0 188 -1 193 -23 214 -26 24 -65 28 -90 10z"/>
<path d="M3392 1127 c-21 -22 -22 -32 -22 -211 0 -185 0 -187 25 -211 27 -28
42 -30 79 -14 42 19 48 52 44 244 -3 172 -4 177 -27 196 -32 26 -73 24 -99 -4z"/>
</g>
</svg>
