<?xml version="1.0" standalone="no"?>
<!DOCTYPE svg PUBLIC "-//W3C//DTD SVG 20010904//EN"
 "http://www.w3.org/TR/2001/REC-SVG-20010904/DTD/svg10.dtd">
<svg version="1.0" xmlns="http://www.w3.org/2000/svg"
 width="512.000000pt" height="512.000000pt" viewBox="0 0 512.000000 512.000000"
 preserveAspectRatio="xMidYMid meet">

<g transform="translate(0.000000,512.000000) scale(0.100000,-0.100000)"
fill="#000000" stroke="none">
<path d="M2125 4911 c-30 -13 -1876 -1665 -1903 -1702 -24 -35 -28 -75 -11
-113 7 -14 84 -90 173 -169 89 -79 510 -455 936 -836 426 -382 789 -701 807
-709 41 -19 97 -5 134 34 l24 26 3 434 3 434 121 0 c328 0 690 -105 1000 -289
447 -266 828 -707 1062 -1227 64 -144 124 -306 161 -436 31 -108 58 -145 117
-154 45 -8 104 19 123 56 25 49 39 237 39 520 0 357 -29 612 -104 911 -101
402 -255 753 -472 1079 -134 201 -207 291 -387 470 -303 303 -618 501 -996
625 -182 59 -439 105 -597 105 l-68 0 0 435 0 435 -33 36 c-34 37 -91 53 -132
35z"/>
</g>
</svg>
